<?xml version="1.0" encoding="UTF-8" standalone="no"?>
<!-- Created with Inkscape (http://www.inkscape.org/) -->

<svg
   xmlns:dc="http://purl.org/dc/elements/1.1/"
   xmlns:cc="http://creativecommons.org/ns#"
   xmlns:rdf="http://www.w3.org/1999/02/22-rdf-syntax-ns#"
   xmlns:svg="http://www.w3.org/2000/svg"
   xmlns="http://www.w3.org/2000/svg"
   xmlns:sodipodi="http://sodipodi.sourceforge.net/DTD/sodipodi-0.dtd"
   xmlns:inkscape="http://www.inkscape.org/namespaces/inkscape"
   width="210mm"
   height="297mm"
   viewBox="0 0 210 297"
   version="1.1"
   id="svg4242"
   inkscape:version="0.92.5 (2060ec1f9f, 2020-04-08)"
   sodipodi:docname="angstschreeuw.svg"
   inkscape:export-filename="/home/bob/bitmap.png"
   inkscape:export-xdpi="300"
   inkscape:export-ydpi="300">
  <defs
     id="defs4236" />
  <sodipodi:namedview
     id="base"
     pagecolor="#ffffff"
     bordercolor="#666666"
     borderopacity="1.0"
     inkscape:pageopacity="0.0"
     inkscape:pageshadow="2"
     inkscape:zoom="0.64"
     inkscape:cx="510.55039"
     inkscape:cy="418.69659"
     inkscape:document-units="mm"
     inkscape:current-layer="layer1"
     showgrid="false"
     showguides="false"
     inkscape:window-width="1920"
     inkscape:window-height="1016"
     inkscape:window-x="0"
     inkscape:window-y="27"
     inkscape:window-maximized="1" />
  <metadata
     id="metadata4239">
    <rdf:RDF>
      <cc:Work
         rdf:about="">
        <dc:format>image/svg+xml</dc:format>
        <dc:type
           rdf:resource="http://purl.org/dc/dcmitype/StillImage" />
        <dc:title />
      </cc:Work>
    </rdf:RDF>
  </metadata>
  <g
     inkscape:label="Layer 1"
     inkscape:groupmode="layer"
     id="layer1">
    <rect
       style="fill:#0f0f1d;fill-opacity:1;stroke:none;stroke-width:0.26491714;stroke-opacity:1"
       id="rect1138"
       width="200"
       height="173.54167"
       x="5"
       y="48.5"
       inkscape:export-xdpi="300.00427"
       inkscape:export-ydpi="300.00427"
       inkscape:export-filename="/home/bob/rect1138.png" />
    <text
       xml:space="preserve"
       style="font-style:normal;font-weight:normal;font-size:14.11110115px;line-height:1.25;font-family:sans-serif;fill:#ffffe6;fill-opacity:1;stroke:none;stroke-width:0.26458299"
       x="67.951393"
       y="73.620819"
       id="text335"
       inkscape:export-xdpi="300.00427"
       inkscape:export-ydpi="300.00427"><tspan
         sodipodi:role="line"
         id="tspan333"
         x="67.951393"
         y="73.620819"
         style="font-style:normal;font-variant:normal;font-weight:normal;font-stretch:normal;font-size:14.11110115px;font-family:Ubuntu;-inkscape-font-specification:Ubuntu;fill:#ffffe6;fill-opacity:1;stroke-width:0.26458299">Boetekleed</tspan></text>
    <rect
       style="fill:#ffffe6;fill-opacity:1;stroke-width:0.26458299"
       id="rect375"
       width="167.83607"
       height="0.69463974"
       x="21.081963"
       y="76.027847"
       inkscape:export-xdpi="300.00427"
       inkscape:export-ydpi="300.00427" />
    <text
       xml:space="preserve"
       style="font-style:normal;font-weight:normal;font-size:10.58329964px;line-height:1.10000002;font-family:sans-serif;fill:#ffffe6;fill-opacity:1;stroke:none;stroke-width:0.26458299"
       x="45.09956"
       y="98.707687"
       id="text1210"><tspan
         sodipodi:role="line"
         x="45.09956"
         y="98.707687"
         style="font-style:italic;font-variant:normal;font-weight:300;font-stretch:normal;font-size:8.46666622px;line-height:1.60000002;font-family:Ubuntu;-inkscape-font-specification:'Ubuntu Light Italic';letter-spacing:-0.20108333px;fill:#ffffe6;fill-opacity:1;stroke-width:0.26458299"
         id="tspan6298">Men weeft en stikt nog vol verdriet,</tspan><tspan
         sodipodi:role="line"
         x="45.09956"
         y="112.25436"
         style="font-style:italic;font-variant:normal;font-weight:300;font-stretch:normal;font-size:8.46666622px;line-height:1.60000002;font-family:Ubuntu;-inkscape-font-specification:'Ubuntu Light Italic';fill:#ffffe6;fill-opacity:1;stroke-width:0.26458299"
         id="tspan1096">voor mens of god een boetekleed.</tspan><tspan
         sodipodi:role="line"
         x="45.09956"
         y="125.80102"
         style="font-style:italic;font-variant:normal;font-weight:300;font-stretch:normal;font-size:8.46666622px;line-height:1.60000002;font-family:Ubuntu;-inkscape-font-specification:'Ubuntu Light Italic';letter-spacing:0.02910417px;fill:#ffffe6;fill-opacity:1;stroke-width:0.26458299"
         id="tspan1098">Verwarmd zichzelf dan en geniet:</tspan><tspan
         sodipodi:role="line"
         x="45.09956"
         y="139.34769"
         style="font-style:italic;font-variant:normal;font-weight:300;font-stretch:normal;font-size:8.46666622px;line-height:1.60000002;font-family:Ubuntu;-inkscape-font-specification:'Ubuntu Light Italic';fill:#ffffe6;fill-opacity:1;stroke-width:0.26458299"
         id="tspan1102">      Verheerl<tspan
   style="letter-spacing:-0.04497916px"
   id="tspan1110">ij</tspan>kend het zoete leed!</tspan><tspan
         sodipodi:role="line"
         x="45.09956"
         y="152.89435"
         style="font-style:italic;font-variant:normal;font-weight:300;font-stretch:normal;font-size:8.46666622px;line-height:1.60000002;font-family:Ubuntu;-inkscape-font-specification:'Ubuntu Light Italic';fill:#ffffe6;fill-opacity:1;stroke-width:0.26458299"
         id="tspan1104">      Vertelling in het lijden ziet!</tspan><tspan
         sodipodi:role="line"
         x="45.09956"
         y="166.44102"
         style="font-style:italic;font-variant:normal;font-weight:300;font-stretch:normal;font-size:8.46666622px;line-height:1.60000002;font-family:Ubuntu;-inkscape-font-specification:'Ubuntu Light Italic';fill:#ffffe6;fill-opacity:1;stroke-width:0.26458299"
         id="tspan1106">Waar ik van enkel wroeten weet,</tspan><tspan
         sodipodi:role="line"
         x="45.09956"
         y="179.98769"
         style="font-style:italic;font-variant:normal;font-weight:300;font-stretch:normal;font-size:8.46666622px;line-height:1.60000002;font-family:Ubuntu;-inkscape-font-specification:'Ubuntu Light Italic';fill:#ffffe6;fill-opacity:1;stroke-width:0.26458299"
         id="tspan1108">grissend naar wat houvast biedt.</tspan><tspan
         sodipodi:role="line"
         x="45.09956"
         y="192.72757"
         style="font-style:italic;font-variant:normal;font-weight:300;font-stretch:normal;font-size:8.46666622px;line-height:1.60000002;font-family:Ubuntu;-inkscape-font-specification:'Ubuntu Light Italic';fill:#ffffe6;fill-opacity:1;stroke-width:0.26458299"
         id="tspan1100" /></text>
    <text
       xml:space="preserve"
       style="font-style:normal;font-weight:normal;font-size:9.87778187px;line-height:1.25;font-family:sans-serif;fill:#ffffe6;fill-opacity:1;stroke:none;stroke-width:0.26458299"
       x="160.35754"
       y="396.46161"
       id="text335-3"
       inkscape:export-xdpi="300.00427"
       inkscape:export-ydpi="300.00427"><tspan
         sodipodi:role="line"
         id="tspan333-0"
         x="160.35754"
         y="396.46161"
         style="font-style:normal;font-variant:normal;font-weight:normal;font-stretch:normal;font-size:9.87778187px;font-family:Ubuntu;-inkscape-font-specification:Ubuntu;fill:#ffffe6;fill-opacity:1;stroke-width:0.26458299">Bob Lucassen</tspan></text>
    <g
       transform="matrix(1.998684,0,0,1.998684,-106.05067,-80.18659)"
       id="g7344"
       style="stroke-width:0.5003292">
      <path
         inkscape:connector-curvature="0"
         id="path71368-5-7-7-8-3-1-7-6-06-9-3-8-5-9-1"
         d="m 149.38269,142.87052 c -0.0867,0.008 -0.17896,0.0343 -0.27438,0.0816 -0.31788,0.15783 -0.5126,0.31313 -0.71082,0.56458 -0.14216,0.18031 -0.27576,0.43302 -0.36189,0.70387 -0.0857,0.26945 -0.10883,0.34835 -0.13113,0.60124 -0.017,0.19278 -0.0143,0.41229 0.008,0.52926 v 0 c 0.0178,0.0951 0.046,0.27198 0.1731,0.46357 0.086,0.12966 0.17829,0.20685 0.25339,0.26048 0.15334,0.1095 0.35086,0.12916 0.50405,0.10822 h 1.4e-4 c 0.10695,-0.0146 0.20613,-0.0677 0.31718,-0.13602 0.11105,-0.0683 0.22825,-0.15463 0.33844,-0.24426 0.20323,-0.1653 0.32856,-0.29801 0.45158,-0.43604 a 0.12725875,0.12725875 0 1 0 -0.19001,-0.16929 c -0.12009,0.13474 -0.23065,0.2522 -0.42213,0.40796 -0.10351,0.0842 -0.21386,0.16494 -0.31132,0.2249 -0.0975,0.06 -0.1876,0.0964 -0.21822,0.10059 -0.078,0.0107 -0.26462,-0.0224 -0.32182,-0.0632 -0.0638,-0.0455 -0.12241,-0.0934 -0.18919,-0.1941 -0.0982,-0.14805 -0.11574,-0.26653 -0.13507,-0.36966 v 0 c -0.008,-0.0413 -0.0189,-0.29322 -0.004,-0.46002 0.0215,-0.24402 0.0345,-0.27683 0.12022,-0.54645 0.0767,-0.24107 0.20145,-0.47423 0.31909,-0.62345 0.18128,-0.22997 0.32664,-0.34655 0.62413,-0.49424 0.28666,-0.14232 0.44162,-0.0199 0.49683,0.0823 0.0202,0.0373 0.0187,0.0923 -0.004,0.16002 -0.0227,0.0677 -0.0639,0.13677 -0.0919,0.1802 -0.043,0.0668 -0.44976,0.61025 -0.62127,0.74926 -0.0969,0.0785 -0.20131,0.14174 -0.28692,0.184 -0.0422,0.0208 -0.0797,0.0364 -0.10823,0.0464 a 0.12725875,0.12725875 0 0 0 -0.24575,0.0589 c 0,0 0.003,0.0417 0.0252,0.0886 0.011,0.0234 0.0277,0.0515 0.0585,0.0767 0.0308,0.0253 0.0785,0.044 0.12526,0.0429 0.0459,-0.001 0.0773,-0.0117 0.11872,-0.026 0.0414,-0.0144 0.088,-0.0342 0.1389,-0.0593 0.10183,-0.0503 0.22046,-0.12202 0.33462,-0.21454 0.25063,-0.20313 0.59962,-0.69209 0.67498,-0.80924 0.0312,-0.0486 0.0843,-0.13316 0.11913,-0.23676 0.0348,-0.10359 0.0541,-0.23732 -0.0134,-0.36215 -0.09,-0.16655 -0.29932,-0.29631 -0.55939,-0.27084 z"
         style="color:#000000;font-style:normal;font-variant:normal;font-weight:normal;font-stretch:normal;font-size:medium;line-height:normal;font-family:sans-serif;font-variant-ligatures:normal;font-variant-position:normal;font-variant-caps:normal;font-variant-numeric:normal;font-variant-alternates:normal;font-feature-settings:normal;text-indent:0;text-align:start;text-decoration:none;text-decoration-line:none;text-decoration-style:solid;text-decoration-color:#000000;letter-spacing:normal;word-spacing:normal;text-transform:none;writing-mode:lr-tb;direction:ltr;text-orientation:mixed;dominant-baseline:auto;baseline-shift:baseline;text-anchor:start;white-space:normal;shape-padding:0;clip-rule:nonzero;display:inline;overflow:visible;visibility:visible;opacity:1;isolation:auto;mix-blend-mode:normal;color-interpolation:sRGB;color-interpolation-filters:linearRGB;solid-color:#000000;solid-opacity:1;vector-effect:none;fill:#ffffe6;fill-opacity:1;fill-rule:nonzero;stroke:none;stroke-width:0.12732981;stroke-linecap:round;stroke-linejoin:miter;stroke-miterlimit:4;stroke-dasharray:none;stroke-dashoffset:0;stroke-opacity:1;color-rendering:auto;image-rendering:auto;shape-rendering:auto;text-rendering:auto;enable-background:accumulate" />
      <path
         inkscape:connector-curvature="0"
         id="path71299-9-8-8-6-5-4-2-1-6-6-2-5-0-0-39-3-1"
         d="m 142.29721,142.87938 c -0.0574,0.004 -0.11164,0.0145 -0.16084,0.0328 -0.241,0.0898 -0.49512,0.21636 -0.76508,0.53813 -0.15792,0.18823 -0.29539,0.46722 -0.39269,0.73358 -0.0956,0.26177 -0.13772,0.4529 -0.17569,0.71179 -0.0278,0.18938 -0.0296,0.32503 -0.0168,0.42322 0.012,0.092 0.0218,0.24511 0.13917,0.44326 0.0806,0.13618 0.17056,0.21944 0.24439,0.27805 0.14565,0.11565 0.34099,0.15947 0.51346,0.12077 0.16494,-0.037 0.40561,-0.14951 0.61282,-0.38383 0.08,-0.0905 0.15578,-0.2225 0.23076,-0.35575 -0.0157,0.22447 -0.033,0.49754 -0.0398,0.62549 a 0.12728411,0.12728411 0 1 0 0.25421,0.0135 c 0.0125,-0.2344 0.0568,-0.74943 0.0769,-1.20629 0.009,-0.2081 0.0383,-0.59231 0.0537,-0.97048 0.005,-0.11865 0.0192,-0.26111 0.0204,-0.39842 0.001,-0.1373 -0.004,-0.27183 -0.077,-0.38887 -0.0794,-0.12698 -0.21411,-0.18357 -0.33804,-0.20583 -0.062,-0.0111 -0.12251,-0.0148 -0.17992,-0.0112 z m 0.13507,0.2617 c 0.0796,0.0143 0.14127,0.0489 0.16711,0.0902 0.0206,0.033 0.0393,0.13143 0.0383,0.25176 -0.001,0.12033 -0.0149,0.26019 -0.0202,0.39024 -0.015,0.36888 -0.0436,0.74269 -0.0534,0.96149 a 0.12725876,0.12725876 0 0 0 -0.0131,0.0191 c -0.0615,0.10636 -0.13906,0.25738 -0.21972,0.40264 -0.0807,0.14526 -0.16742,0.28597 -0.22599,0.35221 -0.16755,0.18946 -0.37357,0.2807 -0.47788,0.3041 -0.0625,0.014 -0.23771,-0.023 -0.29946,-0.072 -0.063,-0.05 -0.12082,-0.10223 -0.18361,-0.20827 -0.0942,-0.1591 -0.0913,-0.23569 -0.10577,-0.34662 -0.008,-0.0637 -0.009,-0.18036 0.0161,-0.3533 0.0367,-0.2505 0.0726,-0.4138 0.16302,-0.66135 0.0898,-0.24585 0.22571,-0.51084 0.34867,-0.65739 0.24239,-0.28893 0.43319,-0.37912 0.65889,-0.46317 0.0353,-0.0131 0.12749,-0.0239 0.20705,-0.01 z"
         style="color:#000000;font-style:normal;font-variant:normal;font-weight:normal;font-stretch:normal;font-size:medium;line-height:normal;font-family:sans-serif;font-variant-ligatures:normal;font-variant-position:normal;font-variant-caps:normal;font-variant-numeric:normal;font-variant-alternates:normal;font-feature-settings:normal;text-indent:0;text-align:start;text-decoration:none;text-decoration-line:none;text-decoration-style:solid;text-decoration-color:#000000;letter-spacing:normal;word-spacing:normal;text-transform:none;writing-mode:lr-tb;direction:ltr;text-orientation:mixed;dominant-baseline:auto;baseline-shift:baseline;text-anchor:start;white-space:normal;shape-padding:0;clip-rule:nonzero;display:inline;overflow:visible;visibility:visible;opacity:1;isolation:auto;mix-blend-mode:normal;color-interpolation:sRGB;color-interpolation-filters:linearRGB;solid-color:#000000;solid-opacity:1;vector-effect:none;fill:#ffffe6;fill-opacity:1;fill-rule:nonzero;stroke:none;stroke-width:0.12732983;stroke-linecap:round;stroke-linejoin:miter;stroke-miterlimit:4;stroke-dasharray:none;stroke-dashoffset:0;stroke-opacity:1;color-rendering:auto;image-rendering:auto;shape-rendering:auto;text-rendering:auto;enable-background:accumulate" />
      <path
         sodipodi:nodetypes="cccsccccccssssssscccsccscccccccsssssscccccccc"
         inkscape:connector-curvature="0"
         id="path71299-9-8-8-6-5-4-1-6-4-7-6-2-7-2-3-1-4-1"
         d="m 126.92853,139.49768 c -0.0702,0.001 -0.12604,0.0594 -0.12471,0.12963 1.6e-4,0.0345 -0.0142,0.25655 -0.0341,0.58951 -0.0198,0.33296 -0.0308,0.79118 -0.0505,1.34927 -0.009,0.26277 -0.0257,0.5291 -0.0345,0.78757 -0.0306,0.8969 -0.0626,1.70665 -0.0599,1.90198 0.003,0.20533 -0.004,0.58521 0.002,0.95835 0.002,0.11702 -0.004,0.25809 0.003,0.39338 0.007,0.13529 0.019,0.26745 0.0977,0.37906 0.0853,0.12104 0.22105,0.16947 0.34417,0.18442 0.12311,0.0149 0.23913,-0.0129 0.33408,-0.0549 0.23098,-0.10206 0.44537,-0.24658 0.69834,-0.5737 0.14399,-0.18622 0.21704,-0.34977 0.24281,-0.40682 0.05,-0.11067 0.0845,-0.18749 0.12106,-0.32412 0.0709,-0.26537 0.11619,-0.45382 0.13865,-0.71083 0.0164,-0.18807 -0.0147,-0.41777 -0.0147,-0.41777 v 0 c 0,0 -0.0353,-0.24015 -0.16152,-0.42881 -0.0868,-0.12967 -0.17986,-0.20674 -0.25556,-0.26035 -0.14996,-0.10615 -0.34404,-0.13858 -0.51196,-0.0904 -0.16008,0.046 -0.38167,0.16608 -0.56547,0.4134 -0.0638,0.0858 -0.16347,0.27347 -0.20138,0.42865 0.009,-0.35937 0.008,-0.77326 0.0289,-1.38277 0.009,-0.25833 0.0113,-0.52459 0.0206,-0.78729 0.0196,-0.55546 0.0582,-1.01142 0.078,-1.34314 0.0198,-0.33172 0.035,-0.52487 0.0346,-0.60587 6.6e-4,-0.0717 -0.0581,-0.12982 -0.12976,-0.1284 z m 0.80474,3.65009 c 0.0591,-0.017 0.23228,0.009 0.29469,0.0534 0.0644,0.0456 0.12375,0.0935 0.1911,0.19411 0.10108,0.15103 0.10243,0.22615 0.12295,0.33462 0.0118,0.0621 0.0124,0.17677 -0.003,0.34839 -0.0217,0.24861 -0.0498,0.40882 -0.11501,0.66012 -0.0652,0.25133 -0.18028,0.5276 -0.28973,0.68021 -0.0676,0.0943 -0.15003,0.19886 -0.25566,0.27831 -0.11816,0.0889 -0.28037,0.17679 -0.37589,0.2002 -0.0352,0.009 -0.12237,0.0305 -0.2005,0.021 -0.0781,-0.01 -0.13957,-0.0396 -0.16684,-0.0782 -0.0217,-0.0308 -0.0459,-0.12664 -0.0517,-0.24508 -0.006,-0.11843 -9e-5,-0.25683 -0.002,-0.38519 -0.006,-0.36377 3.5e-4,-0.73308 -0.002,-0.94908 0.057,-0.17321 0.12737,-0.35418 0.20378,-0.49792 0.0794,-0.14861 0.1477,-0.22115 0.20104,-0.28938 0.15295,-0.19562 0.34907,-0.29676 0.44912,-0.32548 z"
         style="color:#000000;font-style:normal;font-variant:normal;font-weight:normal;font-stretch:normal;font-size:medium;line-height:normal;font-family:sans-serif;font-variant-ligatures:normal;font-variant-position:normal;font-variant-caps:normal;font-variant-numeric:normal;font-variant-alternates:normal;font-feature-settings:normal;text-indent:0;text-align:start;text-decoration:none;text-decoration-line:none;text-decoration-style:solid;text-decoration-color:#000000;letter-spacing:normal;word-spacing:normal;text-transform:none;writing-mode:lr-tb;direction:ltr;text-orientation:mixed;dominant-baseline:auto;baseline-shift:baseline;text-anchor:start;white-space:normal;shape-padding:0;clip-rule:nonzero;display:inline;overflow:visible;visibility:visible;opacity:1;isolation:auto;mix-blend-mode:normal;color-interpolation:sRGB;color-interpolation-filters:linearRGB;solid-color:#000000;solid-opacity:1;vector-effect:none;fill:#ffffe6;fill-opacity:1;fill-rule:nonzero;stroke:none;stroke-width:0.12732983;stroke-linecap:round;stroke-linejoin:miter;stroke-miterlimit:4;stroke-dasharray:none;stroke-dashoffset:0;stroke-opacity:1;color-rendering:auto;image-rendering:auto;shape-rendering:auto;text-rendering:auto;enable-background:accumulate" />
      <path
         inkscape:connector-curvature="0"
         id="path71299-9-8-8-6-5-4-1-9-4-6-4-2-7-0-1-2-6-7-02"
         d="m 131.72984,139.49073 a 0.12725876,0.12725876 0 0 0 -0.12458,0.12963 c 1.4e-4,0.0345 -0.0144,0.25836 -0.0342,0.59305 -0.0198,0.3347 -0.0447,0.7946 -0.0645,1.35268 -0.009,0.26277 -0.0186,0.5291 -0.0274,0.78757 -0.0307,0.8969 -0.0558,1.70665 -0.053,1.90198 0.003,0.20533 -0.004,0.58521 0.002,0.95835 0.002,0.11702 -0.004,0.25809 0.003,0.39338 0.007,0.13529 0.019,0.26745 0.0977,0.37906 0.0853,0.12104 0.22119,0.16947 0.34431,0.18442 0.12311,0.0149 0.23899,0.001 0.33394,-0.0409 0.23098,-0.10207 0.47313,-0.24143 0.71928,-0.57371 0.14413,-0.19456 0.26294,-0.47709 0.34307,-0.74489 0.0787,-0.26316 0.10907,-0.45382 0.13154,-0.71083 0.0164,-0.18807 0.0104,-0.3217 -0.008,-0.41777 v 0 c -0.017,-0.0898 -0.0353,-0.24015 -0.16152,-0.42881 -0.0868,-0.12967 -0.17973,-0.20674 -0.25544,-0.26035 -0.14996,-0.10615 -0.34417,-0.13858 -0.51209,-0.0904 -0.16008,0.046 -0.38963,0.17065 -0.57943,0.4134 -0.0668,0.0854 -0.12716,0.20883 -0.18742,0.33082 0.009,-0.3594 0.0152,-0.6755 0.036,-1.28494 0.009,-0.25833 0.0181,-0.52459 0.0274,-0.78729 0.0196,-0.55547 0.0444,-1.01321 0.0642,-1.34669 0.0198,-0.33347 0.035,-0.52827 0.0346,-0.60927 a 0.12725876,0.12725876 0 0 0 -0.12989,-0.1284 z m 0.80474,3.65704 c 0.0591,-0.017 0.23241,0.009 0.29482,0.0534 0.0644,0.0456 0.12375,0.0935 0.1911,0.19411 0.10108,0.15103 0.10243,0.22615 0.12295,0.33462 0.0117,0.0621 0.0192,0.17677 0.004,0.34839 -0.0217,0.24861 -0.0474,0.4114 -0.12186,0.66012 -0.0739,0.24697 -0.1919,0.51535 -0.30369,0.66625 -0.22065,0.29787 -0.40162,0.39703 -0.61759,0.49247 -0.0331,0.0146 -0.12237,0.0305 -0.2005,0.021 -0.0781,-0.01 -0.13971,-0.0396 -0.16697,-0.0782 -0.0217,-0.0308 -0.0457,-0.12664 -0.0515,-0.24508 -0.006,-0.11843 -2e-4,-0.25683 -0.002,-0.38519 -0.006,-0.36372 2.6e-4,-0.73293 -0.002,-0.94895 a 0.12725876,0.12725876 0 0 0 0.0117,-0.0195 c 0.0542,-0.10825 0.1215,-0.26125 0.19219,-0.40877 0.0707,-0.14753 0.14756,-0.29094 0.20091,-0.35917 0.15295,-0.19562 0.34906,-0.29676 0.44912,-0.32549 z"
         style="color:#000000;font-style:normal;font-variant:normal;font-weight:normal;font-stretch:normal;font-size:medium;line-height:normal;font-family:sans-serif;font-variant-ligatures:normal;font-variant-position:normal;font-variant-caps:normal;font-variant-numeric:normal;font-variant-alternates:normal;font-feature-settings:normal;text-indent:0;text-align:start;text-decoration:none;text-decoration-line:none;text-decoration-style:solid;text-decoration-color:#000000;letter-spacing:normal;word-spacing:normal;text-transform:none;writing-mode:lr-tb;direction:ltr;text-orientation:mixed;dominant-baseline:auto;baseline-shift:baseline;text-anchor:start;white-space:normal;shape-padding:0;clip-rule:nonzero;display:inline;overflow:visible;visibility:visible;opacity:1;isolation:auto;mix-blend-mode:normal;color-interpolation:sRGB;color-interpolation-filters:linearRGB;solid-color:#000000;solid-opacity:1;vector-effect:none;fill:#ffffe6;fill-opacity:1;fill-rule:nonzero;stroke:none;stroke-width:0.12732983;stroke-linecap:round;stroke-linejoin:miter;stroke-miterlimit:4;stroke-dasharray:none;stroke-dashoffset:0;stroke-opacity:1;color-rendering:auto;image-rendering:auto;shape-rendering:auto;text-rendering:auto;enable-background:accumulate" />
      <path
         inkscape:connector-curvature="0"
         id="path71299-9-8-8-6-5-4-1-9-4-6-9-9-0-71-6-5-4-4-4-5-0-12"
         d="m 135.42163,139.49768 a 0.12725876,0.12725876 0 0 0 -0.12472,0.12963 c 1.4e-4,0.0345 -0.0142,0.25655 -0.0341,0.58951 -0.0198,0.33296 -0.0447,0.79118 -0.0645,1.34927 -0.009,0.26277 -0.0186,0.5291 -0.0274,0.78757 -0.0306,0.8969 -0.0558,1.70665 -0.053,1.90198 0.003,0.20054 -0.004,1.43239 0.002,1.80889 a 0.12725876,0.12725876 0 1 0 0.25448,-0.004 c -0.006,-0.36364 5.3e-4,-1.58816 -0.002,-1.80807 -0.002,-0.16078 0.0223,-0.99343 0.0529,-1.88971 0.009,-0.25833 0.0181,-0.52459 0.0274,-0.7873 0.0196,-0.55546 0.0444,-1.01141 0.0642,-1.34313 0.0198,-0.33172 0.0349,-0.52488 0.0345,-0.60587 a 0.12725876,0.12725876 0 0 0 -0.12976,-0.12841 z"
         style="color:#000000;font-style:normal;font-variant:normal;font-weight:normal;font-stretch:normal;font-size:medium;line-height:normal;font-family:sans-serif;font-variant-ligatures:normal;font-variant-position:normal;font-variant-caps:normal;font-variant-numeric:normal;font-variant-alternates:normal;font-feature-settings:normal;text-indent:0;text-align:start;text-decoration:none;text-decoration-line:none;text-decoration-style:solid;text-decoration-color:#000000;letter-spacing:normal;word-spacing:normal;text-transform:none;writing-mode:lr-tb;direction:ltr;text-orientation:mixed;dominant-baseline:auto;baseline-shift:baseline;text-anchor:start;white-space:normal;shape-padding:0;clip-rule:nonzero;display:inline;overflow:visible;visibility:visible;opacity:1;isolation:auto;mix-blend-mode:normal;color-interpolation:sRGB;color-interpolation-filters:linearRGB;solid-color:#000000;solid-opacity:1;vector-effect:none;fill:#ffffe6;fill-opacity:1;fill-rule:nonzero;stroke:none;stroke-width:0.12732983;stroke-linecap:round;stroke-linejoin:miter;stroke-miterlimit:4;stroke-dasharray:none;stroke-dashoffset:0;stroke-opacity:1;color-rendering:auto;image-rendering:auto;shape-rendering:auto;text-rendering:auto;enable-background:accumulate" />
      <path
         inkscape:connector-curvature="0"
         id="path71321-6-5-2-8-8-7-6-8-2-0-6-9-6-8-1-0-3"
         d="m 136.33323,142.8832 a 0.12725875,0.12725875 0 0 0 -0.12935,0.12499 c -0.0152,0.477 -0.0401,1.13877 -0.0473,1.52537 -0.004,0.19638 -0.0406,0.5898 0.017,0.92565 0.0472,0.275 0.12474,0.42888 0.23185,0.53539 0.0654,0.0651 0.1484,0.10218 0.24194,0.13222 0.0936,0.03 0.19606,0.0485 0.29605,0.0451 0.21245,-0.007 0.42763,-0.0614 0.61555,-0.20555 0.22163,-0.17003 0.33474,-0.36933 0.43372,-0.60028 l 0.002,-0.004 0.001,-0.004 c 0.20472,-0.58939 0.20548,-1.22106 0.22449,-1.81925 0.005,-0.15584 0.0206,-0.35651 0.0124,-0.53158 a 0.12725875,0.12725875 0 1 0 -0.2542,0.012 c 0.007,0.14972 -0.007,0.3464 -0.0125,0.51141 -0.0191,0.60131 -0.0248,1.20504 -0.20936,1.73951 -0.0922,0.21443 -0.17293,0.35689 -0.35249,0.49465 -0.1391,0.10672 -0.29245,0.14704 -0.46929,0.15307 -0.0602,0.002 -0.14073,-0.011 -0.20963,-0.0331 -0.0689,-0.0221 -0.12778,-0.0579 -0.14026,-0.0703 -0.0698,-0.0694 -0.1178,-0.14936 -0.16043,-0.39787 -0.0486,-0.2834 -0.0176,-0.65978 -0.0135,-0.87807 0.007,-0.38102 0.032,-1.04357 0.0472,-1.52197 a 0.12725875,0.12725875 0 0 0 -0.12499,-0.13303 z"
         style="color:#000000;font-style:normal;font-variant:normal;font-weight:normal;font-stretch:normal;font-size:medium;line-height:normal;font-family:sans-serif;font-variant-ligatures:normal;font-variant-position:normal;font-variant-caps:normal;font-variant-numeric:normal;font-variant-alternates:normal;font-feature-settings:normal;text-indent:0;text-align:start;text-decoration:none;text-decoration-line:none;text-decoration-style:solid;text-decoration-color:#000000;letter-spacing:normal;word-spacing:normal;text-transform:none;writing-mode:lr-tb;direction:ltr;text-orientation:mixed;dominant-baseline:auto;baseline-shift:baseline;text-anchor:start;white-space:normal;shape-padding:0;clip-rule:nonzero;display:inline;overflow:visible;visibility:visible;opacity:1;isolation:auto;mix-blend-mode:normal;color-interpolation:sRGB;color-interpolation-filters:linearRGB;solid-color:#000000;solid-opacity:1;vector-effect:none;fill:#ffffe6;fill-opacity:1;fill-rule:nonzero;stroke:none;stroke-width:0.12732981;stroke-linecap:round;stroke-linejoin:miter;stroke-miterlimit:4;stroke-dasharray:none;stroke-dashoffset:0;stroke-opacity:1;color-rendering:auto;image-rendering:auto;shape-rendering:auto;text-rendering:auto;enable-background:accumulate" />
      <path
         inkscape:connector-curvature="0"
         id="path71321-6-5-2-8-8-7-6-8-2-0-1-2-0-3-5-2-1-5"
         d="m 151.55892,142.88715 c -0.21215,0.008 -0.42713,0.0621 -0.6146,0.20663 -0.22108,0.17043 -0.33357,0.36998 -0.43208,0.60111 l -0.002,0.004 -0.002,0.004 c -0.20357,0.5897 -0.20336,1.22144 -0.22149,1.81965 -0.005,0.15294 -0.0261,0.36609 -0.0174,0.54453 a 0.12725875,0.12725875 0 1 0 0.25421,-0.0123 c -0.007,-0.14633 0.0126,-0.35671 0.0177,-0.52463 0.0182,-0.60118 0.0229,-1.2048 0.20636,-1.73951 0.0918,-0.21488 0.17218,-0.35745 0.3514,-0.4956 0.13872,-0.10695 0.29182,-0.14755 0.46834,-0.15389 0.06,-0.002 0.14029,0.0107 0.20909,0.0327 0.0688,0.022 0.12767,0.0577 0.14012,0.0701 0.0698,0.0693 0.11778,0.14915 0.1607,0.3976 0.0489,0.28334 0.0185,0.6598 0.0147,0.87807 -0.007,0.38108 -0.0305,1.05671 -0.045,1.53506 a 0.12725875,0.12725875 0 1 0 0.25434,0.008 c 0.0145,-0.47711 0.0385,-1.15191 0.0451,-1.53846 0.003,-0.19639 0.0396,-0.58993 -0.0184,-0.92564 -0.0475,-0.2749 -0.12514,-0.42864 -0.23227,-0.53499 -0.0654,-0.065 -0.14832,-0.10205 -0.2418,-0.13194 -0.0935,-0.0299 -0.19588,-0.0482 -0.29578,-0.0446 z"
         style="color:#000000;font-style:normal;font-variant:normal;font-weight:normal;font-stretch:normal;font-size:medium;line-height:normal;font-family:sans-serif;font-variant-ligatures:normal;font-variant-position:normal;font-variant-caps:normal;font-variant-numeric:normal;font-variant-alternates:normal;font-feature-settings:normal;text-indent:0;text-align:start;text-decoration:none;text-decoration-line:none;text-decoration-style:solid;text-decoration-color:#000000;letter-spacing:normal;word-spacing:normal;text-transform:none;writing-mode:lr-tb;direction:ltr;text-orientation:mixed;dominant-baseline:auto;baseline-shift:baseline;text-anchor:start;white-space:normal;shape-padding:0;clip-rule:nonzero;display:inline;overflow:visible;visibility:visible;opacity:1;isolation:auto;mix-blend-mode:normal;color-interpolation:sRGB;color-interpolation-filters:linearRGB;solid-color:#000000;solid-opacity:1;vector-effect:none;fill:#ffffe6;fill-opacity:1;fill-rule:nonzero;stroke:none;stroke-width:0.12732981;stroke-linecap:round;stroke-linejoin:miter;stroke-miterlimit:4;stroke-dasharray:none;stroke-dashoffset:0;stroke-opacity:1;color-rendering:auto;image-rendering:auto;shape-rendering:auto;text-rendering:auto;enable-background:accumulate" />
      <path
         inkscape:connector-curvature="0"
         id="path71299-9-8-8-6-5-4-1-9-4-6-4-2-7-0-2-6-7-5-8-01"
         d="m 139.94528,142.89696 c -0.0563,0.007 -0.10907,0.021 -0.15647,0.042 -0.2339,0.10336 -0.46743,0.25021 -0.71233,0.58079 -0.14183,0.19146 -0.26911,0.46737 -0.35003,0.73781 -0.0787,0.26315 -0.10907,0.45394 -0.13153,0.71096 -0.0164,0.18807 -0.0104,0.32169 0.008,0.41777 0.017,0.0898 0.0353,0.24029 0.16153,0.42895 0.0868,0.12967 0.17986,0.20674 0.25556,0.26034 0.16046,0.11359 0.35742,0.10059 0.48252,0.095 0.183,-0.008 0.40225,-0.0978 0.60028,-0.30368 0.15824,-0.16452 0.27501,-0.30776 0.41341,-0.51318 a 0.12725876,0.12725876 0 1 0 -0.21099,-0.14231 c -0.13222,0.19625 -0.23516,0.32241 -0.38588,0.47911 -0.15834,0.16462 -0.32016,0.22104 -0.42813,0.22586 -0.11084,0.005 -0.27235,-0.0118 -0.32427,-0.0485 -0.0644,-0.0456 -0.12361,-0.0936 -0.19096,-0.19423 -0.10108,-0.15104 -0.10257,-0.22616 -0.12308,-0.33463 -0.0117,-0.0621 -0.0192,-0.17677 -0.004,-0.34839 0.0217,-0.24861 0.0474,-0.41126 0.12185,-0.65998 0.0731,-0.24434 0.19656,-0.50544 0.31064,-0.65944 0.22191,-0.29956 0.39773,-0.40527 0.61078,-0.49942 0.0332,-0.0147 0.12319,-0.0309 0.20146,-0.0215 0.0783,0.009 0.13878,0.0393 0.16492,0.0774 0.025,0.0365 0.0242,0.0434 0.0204,0.0253 -0.004,-0.018 -0.002,-0.0109 -0.007,0.0309 a 0.12725876,0.12725876 0 1 0 0.25271,0.0297 c 0.004,-0.0334 0.0139,-0.0605 0.003,-0.11258 -0.0109,-0.0521 -0.0337,-0.0793 -0.0597,-0.11722 -0.0843,-0.12307 -0.22119,-0.1716 -0.34472,-0.18634 -0.0618,-0.007 -0.12167,-0.007 -0.17801,-7.9e-4 z"
         style="color:#000000;font-style:normal;font-variant:normal;font-weight:normal;font-stretch:normal;font-size:medium;line-height:normal;font-family:sans-serif;font-variant-ligatures:normal;font-variant-position:normal;font-variant-caps:normal;font-variant-numeric:normal;font-variant-alternates:normal;font-feature-settings:normal;text-indent:0;text-align:start;text-decoration:none;text-decoration-line:none;text-decoration-style:solid;text-decoration-color:#000000;letter-spacing:normal;word-spacing:normal;text-transform:none;writing-mode:lr-tb;direction:ltr;text-orientation:mixed;dominant-baseline:auto;baseline-shift:baseline;text-anchor:start;white-space:normal;shape-padding:0;clip-rule:nonzero;display:inline;overflow:visible;visibility:visible;opacity:1;isolation:auto;mix-blend-mode:normal;color-interpolation:sRGB;color-interpolation-filters:linearRGB;solid-color:#000000;solid-opacity:1;vector-effect:none;fill:#ffffe6;fill-opacity:1;fill-rule:nonzero;stroke:none;stroke-width:0.12732983;stroke-linecap:round;stroke-linejoin:miter;stroke-miterlimit:4;stroke-dasharray:none;stroke-dashoffset:0;stroke-opacity:1;color-rendering:auto;image-rendering:auto;shape-rendering:auto;text-rendering:auto;enable-background:accumulate" />
      <path
         inkscape:connector-curvature="0"
         id="path71351-3-0-1-6-5-6-8-04-4-9-1-7-8-5-7-5"
         d="m 144.67803,142.87011 c -0.1349,-0.002 -0.27176,0.0162 -0.39801,0.0398 -0.36186,0.0677 -0.74044,0.28674 -0.84659,0.68534 -0.0513,0.1926 -0.0621,0.35966 -0.004,0.50487 0.0578,0.14521 0.18561,0.24764 0.34758,0.30682 0.31802,0.1162 0.7353,0.12549 1.01206,0.26293 0.13326,0.0662 0.21986,0.16044 0.26333,0.28079 0.0435,0.12034 0.0443,0.27263 -0.0226,0.45811 -0.0976,0.27065 -0.41118,0.47685 -0.69842,0.50965 -7e-5,0 -2.1e-4,0 -2.6e-4,0 -0.24083,0.025 -0.40026,0.057 -0.64608,-0.0699 -0.10894,-0.0562 -0.16271,-0.13345 -0.18292,-0.21972 -0.0202,-0.0863 -0.004,-0.18531 0.0536,-0.27765 a 0.1272661,0.1272661 0 1 0 -0.2159,-0.1348 c -0.0899,0.14407 -0.12243,0.3127 -0.0855,0.47051 0.037,0.15783 0.14637,0.30127 0.31404,0.38779 0.30691,0.15841 0.55822,0.12085 0.79029,0.0968 h 5.3e-4 7.9e-4 c 0.38019,-0.0433 0.76979,-0.28944 0.90928,-0.67621 0.0825,-0.22884 0.0894,-0.44605 0.0226,-0.63095 -0.0668,-0.1849 -0.20675,-0.33151 -0.38952,-0.42227 -0.35532,-0.17645 -0.79358,-0.18473 -1.03782,-0.27397 -0.11917,-0.0435 -0.17078,-0.0924 -0.19846,-0.16193 -0.0277,-0.0696 -0.03,-0.18088 0.0138,-0.34539 0.0725,-0.27237 0.35156,-0.44524 0.64758,-0.50065 0.22674,-0.0424 0.4898,-0.0463 0.6319,0.0186 0.0845,0.0385 0.0877,0.0575 0.0815,0.0416 -0.006,-0.016 -0.005,-7.9e-4 -0.0116,0.0623 a 0.1272823,0.1272823 0 1 0 0.25298,0.0283 c 0.004,-0.039 0.0291,-0.0974 -0.004,-0.18319 -0.0335,-0.0858 -0.10778,-0.13266 -0.21291,-0.18061 -0.11859,-0.0541 -0.25152,-0.0752 -0.38642,-0.0769 z"
         style="color:#000000;font-style:normal;font-variant:normal;font-weight:normal;font-stretch:normal;font-size:medium;line-height:normal;font-family:sans-serif;font-variant-ligatures:normal;font-variant-position:normal;font-variant-caps:normal;font-variant-numeric:normal;font-variant-alternates:normal;font-feature-settings:normal;text-indent:0;text-align:start;text-decoration:none;text-decoration-line:none;text-decoration-style:solid;text-decoration-color:#000000;letter-spacing:normal;word-spacing:normal;text-transform:none;writing-mode:lr-tb;direction:ltr;text-orientation:mixed;dominant-baseline:auto;baseline-shift:baseline;text-anchor:start;white-space:normal;shape-padding:0;clip-rule:nonzero;display:inline;overflow:visible;visibility:visible;opacity:1;isolation:auto;mix-blend-mode:normal;color-interpolation:sRGB;color-interpolation-filters:linearRGB;solid-color:#000000;solid-opacity:1;vector-effect:none;fill:#ffffe6;fill-opacity:1;fill-rule:nonzero;stroke:none;stroke-width:0.12732981;stroke-linecap:round;stroke-linejoin:miter;stroke-miterlimit:4;stroke-dasharray:none;stroke-dashoffset:0;stroke-opacity:1;color-rendering:auto;image-rendering:auto;shape-rendering:auto;text-rendering:auto;enable-background:accumulate" />
      <path
         inkscape:connector-curvature="0"
         id="path71351-3-0-1-6-5-6-8-04-4-9-1-7-5-7-8-5-8"
         d="m 146.98102,142.87011 c -0.1349,-0.002 -0.27176,0.0162 -0.39801,0.0398 -0.36186,0.0677 -0.74044,0.28674 -0.84659,0.68534 -0.0513,0.1926 -0.0621,0.35966 -0.004,0.50487 0.0578,0.14521 0.18561,0.24764 0.34758,0.30682 0.31802,0.1162 0.7353,0.12549 1.01206,0.26293 0.13326,0.0662 0.21986,0.16044 0.26333,0.28079 0.0435,0.12034 0.0443,0.27263 -0.0226,0.45811 -0.0976,0.27065 -0.41118,0.47685 -0.69842,0.50965 -7e-5,0 -2.1e-4,0 -2.6e-4,0 -0.24083,0.025 -0.40026,0.057 -0.64608,-0.0699 -0.10894,-0.0562 -0.16271,-0.13345 -0.18292,-0.21972 -0.0202,-0.0863 -0.004,-0.18531 0.0536,-0.27765 a 0.12726673,0.12726673 0 1 0 -0.2159,-0.1348 c -0.0899,0.14407 -0.12244,0.3127 -0.0855,0.47051 0.037,0.15783 0.14637,0.30127 0.31404,0.38779 0.30691,0.15841 0.55822,0.12085 0.79029,0.0968 h 5.3e-4 7.9e-4 c 0.38019,-0.0433 0.76979,-0.28944 0.90928,-0.67621 0.0825,-0.22884 0.0894,-0.44605 0.0226,-0.63095 -0.0668,-0.1849 -0.20679,-0.33151 -0.38955,-0.42227 -0.35531,-0.17645 -0.79357,-0.18473 -1.03782,-0.27397 -0.11917,-0.0435 -0.17077,-0.0924 -0.19846,-0.16193 -0.0277,-0.0696 -0.03,-0.18088 0.0138,-0.34539 0.0725,-0.27237 0.35156,-0.44524 0.64758,-0.50065 0.22674,-0.0424 0.4898,-0.0463 0.6319,0.0186 0.0845,0.0385 0.0877,0.0575 0.0815,0.0416 -0.006,-0.016 -0.005,-7.9e-4 -0.0116,0.0623 a 0.12728396,0.12728396 0 1 0 0.25299,0.0283 c 0.004,-0.039 0.0291,-0.0974 -0.004,-0.18319 -0.0335,-0.0858 -0.10778,-0.13266 -0.2129,-0.18061 -0.11859,-0.0541 -0.25153,-0.0752 -0.38642,-0.0769 z"
         style="color:#000000;font-style:normal;font-variant:normal;font-weight:normal;font-stretch:normal;font-size:medium;line-height:normal;font-family:sans-serif;font-variant-ligatures:normal;font-variant-position:normal;font-variant-caps:normal;font-variant-numeric:normal;font-variant-alternates:normal;font-feature-settings:normal;text-indent:0;text-align:start;text-decoration:none;text-decoration-line:none;text-decoration-style:solid;text-decoration-color:#000000;letter-spacing:normal;word-spacing:normal;text-transform:none;writing-mode:lr-tb;direction:ltr;text-orientation:mixed;dominant-baseline:auto;baseline-shift:baseline;text-anchor:start;white-space:normal;shape-padding:0;clip-rule:nonzero;display:inline;overflow:visible;visibility:visible;opacity:1;isolation:auto;mix-blend-mode:normal;color-interpolation:sRGB;color-interpolation-filters:linearRGB;solid-color:#000000;solid-opacity:1;vector-effect:none;fill:#ffffe6;fill-opacity:1;fill-rule:nonzero;stroke:none;stroke-width:0.12732981;stroke-linecap:round;stroke-linejoin:miter;stroke-miterlimit:4;stroke-dasharray:none;stroke-dashoffset:0;stroke-opacity:1;color-rendering:auto;image-rendering:auto;shape-rendering:auto;text-rendering:auto;enable-background:accumulate" />
      <path
         sodipodi:nodetypes="cccscccccccccccccccsccscccccssccc"
         inkscape:connector-curvature="0"
         id="path71299-9-8-8-6-5-4-2-1-6-6-2-5-0-0-3-9-3-6"
         d="m 130.2429,142.87801 c -0.11563,-0.003 -0.23096,0.0199 -0.33572,0.0571 -0.27481,0.0977 -0.46278,0.31087 -0.66958,0.66052 -0.12381,0.20936 -0.2292,0.50143 -0.27541,0.77435 -0.0454,0.26793 -0.0505,0.45948 -0.0378,0.7141 0.009,0.18673 0.0345,0.31766 0.0673,0.41027 0.0302,0.0853 0.0715,0.23176 0.22967,0.40019 v 0 c 0.10754,0.11449 0.21229,0.18066 0.30545,0.22299 0.21045,0.0956 0.42153,0.0675 0.56717,0.009 0.22781,-0.0912 0.45114,-0.26607 0.60748,-0.54181 0.1141,-0.20126 0.22103,-0.49757 0.25867,-0.85125 0.0357,-0.33537 0.0757,-0.62309 0.0178,-1.02358 -0.0249,-0.17222 -0.0537,-0.30802 -0.11477,-0.42813 -0.061,-0.12012 -0.155,-0.21644 -0.28269,-0.30069 -0.10597,-0.0699 -0.222,-0.10002 -0.33763,-0.10346 z m -0.0123,0.25367 c 0.0759,0.002 0.1469,0.0209 0.20963,0.0623 0.10369,0.0684 0.15631,0.12509 0.19614,0.2035 0.0398,0.0784 0.0662,0.18672 0.0897,0.34921 0.0539,0.37243 0.0305,0.64165 -0.005,0.97417 -0.0334,0.31423 -0.10796,0.6005 -0.20612,0.77363 -0.12632,0.22281 -0.33657,0.33154 -0.51561,0.40322 -0.0828,0.0331 -0.23136,0.0501 -0.36734,-0.0117 -0.07,-0.0318 -0.13921,-0.0741 -0.22517,-0.16561 -0.1272,-0.13543 -0.13841,-0.207 -0.17529,-0.31105 -0.0207,-0.0584 -0.0446,-0.16878 -0.053,-0.33789 -0.0123,-0.24562 -0.0149,-0.40571 0.0205,-0.6589 0.0383,-0.27397 0.0976,-0.49566 0.21574,-0.70134 0.13088,-0.2278 0.37202,-0.46322 0.5776,-0.53629 0.0816,-0.029 0.16225,-0.0449 0.23813,-0.0432 z"
         style="color:#000000;font-style:normal;font-variant:normal;font-weight:normal;font-stretch:normal;font-size:medium;line-height:normal;font-family:sans-serif;font-variant-ligatures:normal;font-variant-position:normal;font-variant-caps:normal;font-variant-numeric:normal;font-variant-alternates:normal;font-feature-settings:normal;text-indent:0;text-align:start;text-decoration:none;text-decoration-line:none;text-decoration-style:solid;text-decoration-color:#000000;letter-spacing:normal;word-spacing:normal;text-transform:none;writing-mode:lr-tb;direction:ltr;text-orientation:mixed;dominant-baseline:auto;baseline-shift:baseline;text-anchor:start;white-space:normal;shape-padding:0;clip-rule:nonzero;display:inline;overflow:visible;visibility:visible;opacity:1;isolation:auto;mix-blend-mode:normal;color-interpolation:sRGB;color-interpolation-filters:linearRGB;solid-color:#000000;solid-opacity:1;vector-effect:none;fill:#ffffe6;fill-opacity:1;fill-rule:nonzero;stroke:none;stroke-width:0.12732983;stroke-linecap:round;stroke-linejoin:miter;stroke-miterlimit:4;stroke-dasharray:none;stroke-dashoffset:0;stroke-opacity:1;color-rendering:auto;image-rendering:auto;shape-rendering:auto;text-rendering:auto;enable-background:accumulate" />
    </g>
    <g
       transform="matrix(0.13762098,0,0,0.13762098,16.702205,-240.81416)"
       id="g8189">
      <path
         inkscape:export-ydpi="899.56647"
         inkscape:export-xdpi="899.56647"
         sodipodi:nodetypes="cssssscsc"
         id="path71321-6-5-2-8-8-7-6-8-2-0-1-2-0-3-5-2-1-2-5-2"
         d="m 496.69785,3287.2073 c 0.2076,-6.8455 0.5512,-16.5215 0.6457,-22.0213 0.051,-2.9709 0.529,-8.487 -0.2372,-12.9223 -0.6477,-3.7496 -1.548,-5.424 -2.8154,-6.6822 -1.1163,-1.1081 -4.0633,-2.0821 -6.3544,-2 -2.7847,0.1 -5.4207,0.7806 -7.7577,2.5823 -2.8765,2.2174 -4.2586,4.671 -5.6279,7.8837 -2.7839,8.0642 -2.8138,16.9277 -3.0748,25.5333 -0.07,2.2989 -0.365,5.3335 -0.2526,7.6604"
         style="fill:none;stroke:#ffffe6;stroke-width:3.64666653;stroke-linecap:round;stroke-linejoin:miter;stroke-miterlimit:4;stroke-dasharray:none;stroke-opacity:1"
         inkscape:connector-curvature="0" />
      <path
         inkscape:export-ydpi="899.56647"
         inkscape:export-xdpi="899.56647"
         sodipodi:nodetypes="cssssscsc"
         id="path71321-6-5-2-8-8-7-6-8-2-0-1-2-0-3-5-2-1-2-8-5-24"
         d="m 522.17215,3287.1734 c 0.2076,-6.8455 0.5512,-16.5215 0.6457,-22.0213 0.051,-2.9709 0.529,-8.487 -0.2372,-12.9223 -0.6477,-3.7496 -1.5479,-5.424 -2.8154,-6.6822 -1.1162,-1.1081 -4.0633,-2.0821 -6.3544,-2 -2.7847,0.1 -5.4207,0.7806 -7.7577,2.5823 -2.8764,2.2174 -4.2586,4.671 -5.6279,7.8837 -2.7839,8.0642 -2.8138,16.9277 -3.0748,25.5333 -0.07,2.2989 -0.365,5.3335 -0.2526,7.6604"
         style="fill:none;stroke:#ffffe6;stroke-width:3.64666653;stroke-linecap:round;stroke-linejoin:miter;stroke-miterlimit:4;stroke-dasharray:none;stroke-opacity:1"
         inkscape:connector-curvature="0" />
      <path
         inkscape:export-ydpi="899.56647"
         inkscape:export-xdpi="899.56647"
         sodipodi:nodetypes="csssssssssssc"
         inkscape:connector-curvature="0"
         id="path71299-9-8-8-6-5-4-1-9-4-6-4-2-7-0-1-2-6-7-4-5-7"
         d="m 395.70192,3269.3449 c -0.042,-3.0123 0.056,-8.4233 -0.036,-13.7262 -0.061,-3.516 0.3324,-8.0094 -1.106,-10.0496 -1.6134,-2.2885 -5.6566,-2.2501 -7.4916,-1.4392 -3.2022,1.4151 -6.2339,3.1249 -9.5784,7.6396 -1.8335,2.4751 -3.52979,6.422 -4.63333,10.1102 -1.09728,3.6674 -1.50003,6.1994 -1.81664,9.822 -0.22522,2.577 -0.12792,4.356 0.0864,5.4895 0.26871,1.4207 0.40996,3.0368 2.03869,5.4706 1.10432,1.6501 2.19578,2.546 3.19958,3.2566 1.5215,1.0771 4.1537,1.4964 5.78,1.0294 1.8638,-0.5351 4.9135,-2.1532 7.3691,-5.294 1.939,-2.48 4.3517,-8.3659 5.8265,-11.31"
         style="fill:none;stroke:#ffffe6;stroke-width:3.64666677;stroke-linecap:round;stroke-linejoin:miter;stroke-miterlimit:4;stroke-dasharray:none;stroke-opacity:1" />
      <path
         sodipodi:nodetypes="cscccccscccccccccc"
         inkscape:connector-curvature="0"
         id="path71299-9-8-8-6-5-4-2-1-6-6-2-5-0-0-3-9-3-1-3-4"
         d="m 349.97509,3203.8097 c -0.0545,1.4988 -0.27381,6.8575 -0.71211,19.2535 -0.13312,3.7648 -0.26801,7.5805 -0.39453,11.2832 -0.37464,10.9647 -0.48206,20.7569 -0.50598,25.0859 -0.0437,-1.6423 -0.24128,-3.362 -0.51551,-5.2578 -0.6938,-4.7963 -1.57906,-6.994 -4.89453,-9.1816 -2.4173,-1.5946 -5.36037,-1.4181 -8.03125,-0.4688 -3.44186,1.2235 -6.07738,3.8378 -8.9375,8.6739 -1.56801,2.6513 -2.78363,6.7259 -3.41797,10.4726 -0.63074,3.7255 -0.69645,6.254 -0.51757,9.8379 0.12723,2.5495 0.47978,4.2774 0.86328,5.3594 0.48077,1.3565 0.85568,2.9206 2.90039,5.0976 1.38634,1.4759 2.63348,2.2539 3.80273,2.7852 2.482,1.1278 5.05669,0.8542 6.69336,0.1992 2.91491,-1.1668 5.87335,-3.3988 7.89844,-6.9707 1.52071,-2.6824 3.07072,-6.6073 3.58008,-11.3926 0.28322,-2.6607 0.50831,-5.1118 0.52343,-7.7109 z"
         style="fill:none;stroke:#ffffe6;stroke-width:3.64700007;stroke-linecap:round;stroke-linejoin:round;stroke-miterlimit:4;stroke-dasharray:none;stroke-opacity:1" />
      <path
         inkscape:export-ydpi="899.56647"
         inkscape:export-xdpi="899.56647"
         sodipodi:nodetypes="cssssssssssssc"
         inkscape:connector-curvature="0"
         id="path71299-9-8-8-6-5-4-2-1-6-6-2-5-0-0-39-3-6-5-3"
         d="m 120.11435,3287.3487 c 0.18298,-3.444 0.81519,-10.7804 1.10035,-17.269 0.13403,-3.0524 0.55211,-8.5253 0.77062,-13.9001 0.14485,-3.5636 0.80919,-8.0902 -0.53551,-10.2402 -1.50829,-2.4117 -5.62746,-2.6097 -7.54354,-1.8961 -3.3437,1.2452 -6.53125,2.7988 -10.20203,7.1741 -2.01243,2.3986 -3.971571,6.2956 -5.312001,9.9654 -1.332821,3.649 -1.891751,6.1891 -2.427032,9.8386 -0.3808,2.596 -0.38629,4.403 -0.23465,5.5632 0.1901,1.4543 0.23894,3.099 1.754321,5.6585 1.027441,1.7355 2.086151,2.7065 3.066442,3.4848 1.48595,1.1798 4.14144,1.7586 5.82489,1.3809 1.92916,-0.4326 5.12954,-1.8923 7.81454,-4.9285 2.12012,-2.3975 4.9227,-8.2158 6.59742,-11.1103"
         style="fill:none;stroke:#ffffe6;stroke-width:3.64666677;stroke-linecap:round;stroke-linejoin:miter;stroke-miterlimit:4;stroke-dasharray:none;stroke-opacity:1" />
      <path
         inkscape:export-ydpi="899.56647"
         inkscape:export-xdpi="899.56647"
         sodipodi:nodetypes="cssssssssssc"
         inkscape:connector-curvature="0"
         id="path71299-9-8-8-6-5-4-1-9-4-6-4-2-7-0-2-6-7-5-8-0-7-8"
         d="m 429.24591,3247.7292 c 0.1268,-1.0785 0.22524,-0.9817 -0.50603,-2.0496 -1.58201,-2.3103 -5.65662,-2.2501 -7.49158,-1.4392 -3.20218,1.4151 -6.13396,3.2249 -9.47845,7.7396 -1.83352,2.4751 -3.62976,6.322 -4.7333,10.0102 -1.09728,3.6674 -1.50003,6.1994 -1.81664,9.822 -0.22522,2.577 -0.12792,4.356 0.0864,5.4895 0.26871,1.4207 0.40996,3.0368 2.03869,5.4706 1.10432,1.6501 2.19579,2.546 3.19953,3.2566 1.52154,1.0771 4.08967,1.1049 5.78006,1.0294 2.08471,-0.093 4.81581,-1.1395 7.36908,-3.794 2.21358,-2.3014 3.78763,-4.2322 5.72648,-7.11"
         style="fill:none;stroke:#ffffe6;stroke-width:3.64666677;stroke-linecap:round;stroke-linejoin:miter;stroke-miterlimit:4;stroke-dasharray:none;stroke-opacity:1" />
      <path
         inkscape:export-ydpi="899.56647"
         inkscape:export-xdpi="899.56647"
         sodipodi:nodetypes="czzzssssssssssc"
         inkscape:connector-curvature="0"
         id="path71368-5-7-7-8-3-1-7-6-06-9-3-8-5-9-7-6-0"
         d="m -11.852324,3266.8974 c 0,0 0.1461,1.3758 1.1377,1.3528 0.9915999,-0.023 4.3555998,-1.4377 7.3801202,-3.889 3.02451996,-2.4513 8.43978,-9.8482 9.28766,-11.1663 0.84788,-1.3181 2.6999,-4.4055 1.44501,-6.7287 -1.2549,-2.3232 -4.7445201,-4.3226 -9.53291,-1.9452 -4.4088204,2.1889 -6.8457703,4.1362 -9.5648602,7.5854 -1.86127,2.361 -3.71228,5.8425 -4.87864,9.5102 -1.22821,3.8622 -1.4871,4.6619 -1.80098,8.222 -0.22718,2.5766 -0.12682,5.956 0.0856,7.0895 0.26639,1.4207 0.59257,3.5368 2.20726,5.9706 1.0948,1.6501 2.17686,2.546 3.17195,3.2566 1.50842,1.0771 4.2598399,1.4558 5.9163798,1.2294 1.9712904,-0.2695 5.4300904,-2.5659 8.4922603,-5.0566 2.8279401,-2.3002 4.5170201,-4.0931 6.2588301,-6.0474"
         style="fill:none;stroke:#ffffe6;stroke-width:3.64666653;stroke-linecap:round;stroke-linejoin:miter;stroke-miterlimit:4;stroke-dasharray:none;stroke-opacity:1" />
      <path
         inkscape:export-ydpi="899.56647"
         inkscape:export-xdpi="899.56647"
         sodipodi:nodetypes="cssssccsc"
         inkscape:connector-curvature="0"
         id="path71299-9-8-8-6-5-4-1-9-4-6-4-2-7-0-2-6-7-5-8-7-6-2"
         d="m 160.69141,3210.9301 c -1.47307,-3.5153 -3.55434,-5.3899 -5.34208,-6.0787 -1.44957,-0.5556 -3.2809,-1.1791 -5.31975,-0.5556 -1.11101,0.3397 -2.27618,1.0957 -3.70247,2.5181 -2.1036,2.0979 -2.68229,3.7575 -3.31678,5.1754 -0.50614,1.1313 -1.09256,2.9747 -1.80666,6.715 -0.35861,2.5568 -0.60954,6.6353 -0.88756,15.7039 -0.3983,12.8475 -0.72042,24.6149 -0.68805,27.1663 0.0382,3.0123 -0.0508,20.6108 0.0322,25.9137"
         style="fill:none;stroke:#ffffe6;stroke-width:3.646667;stroke-linecap:round;stroke-linejoin:miter;stroke-miterlimit:4;stroke-dasharray:none;stroke-opacity:1" />
      <path
         inkscape:connector-curvature="0"
         id="path74017-8-1"
         d="m 128.67219,3243.71 h 22.97125"
         style="fill:none;stroke:#ffffe6;stroke-width:3.64700031;stroke-linecap:round;stroke-linejoin:miter;stroke-miterlimit:4;stroke-dasharray:none;stroke-opacity:1" />
      <path
         inkscape:export-ydpi="899.56647"
         inkscape:export-xdpi="899.56647"
         sodipodi:nodetypes="csc"
         inkscape:connector-curvature="0"
         id="path71299-9-8-8-6-5-4-1-9-4-6-9-9-0-71-6-5-4-4-4-5-0-1-2-11"
         d="m 360.99192,3243.7153 c -0.439,12.8475 -0.394,15.2149 -0.3584,17.7663 0.042,3.0123 -0.056,20.6108 0.036,25.9137"
         style="fill:none;stroke:#ffffe6;stroke-width:3.64700007;stroke-linecap:round;stroke-linejoin:miter;stroke-miterlimit:4;stroke-dasharray:none;stroke-opacity:1" />
      <path
         inkscape:export-ydpi="899.56647"
         inkscape:export-xdpi="899.56647"
         sodipodi:nodetypes="csssscsssc"
         inkscape:connector-curvature="0"
         id="path71299-9-8-8-6-5-4-1-9-4-6-4-2-7-0-2-6-7-5-8-7-3-5-0"
         d="m 24.092356,3320.0315 c 1.47305,3.5153 3.55433,5.3899 5.34205,6.0788 1.4496,0.5555 3.28092,1.179 5.31976,0.5555 1.11102,-0.3397 2.27619,-1.0957 3.70248,-2.5181 2.10361,-2.0979 2.68229,-3.7575 3.31678,-5.1754 0.50613,-1.1312 1.09256,-2.9747 1.80654,-6.715 0.47681,-2.6657 0.4994,-5.4846 0.83084,-13.2207 0.16125,-3.7631 0.24193,-7.5806 0.35672,-11.2832 0.39829,-12.8475 0.3204,-15.5149 0.28804,-18.0663 -0.0382,-3.0123 0.0508,-20.6109 -0.0322,-25.9137"
         style="fill:none;stroke:#ffffe6;stroke-width:3.646667;stroke-linecap:round;stroke-linejoin:miter;stroke-miterlimit:4;stroke-dasharray:none;stroke-opacity:1" />
      <path
         inkscape:export-ydpi="899.56647"
         inkscape:export-xdpi="899.56647"
         sodipodi:nodetypes="csssc"
         inkscape:connector-curvature="0"
         id="path71299-9-8-8-6-5-4-1-9-4-6-9-9-0-71-6-5-4-4-4-5-0-7-6-7-8"
         d="m 568.08758,3203.987 c -0.094,1.6941 -0.1495,3.098 -0.7136,19.0543 -0.1332,3.7648 -0.2667,7.5805 -0.3932,11.2832 -0.4389,12.8475 -0.794,24.6149 -0.7583,27.1663 0.042,3.0123 -0.056,20.6108 0.036,25.9137"
         style="fill:none;stroke:#ffffe6;stroke-width:3.64666677;stroke-linecap:round;stroke-linejoin:miter;stroke-miterlimit:4;stroke-dasharray:none;stroke-opacity:1" />
      <path
         inkscape:export-ydpi="899.56647"
         inkscape:export-xdpi="899.56647"
         sodipodi:nodetypes="cssssscsc"
         id="path71321-6-5-2-8-8-7-6-8-2-0-1-2-0-3-5-2-1-3-3-5"
         d="m 281.05048,3287.3706 c 0.20755,-6.8455 0.55116,-16.5215 0.64565,-22.0213 0.051,-2.9709 0.52901,-8.487 -0.23714,-12.9223 -0.64772,-3.7496 -1.54798,-5.424 -2.81543,-6.6822 -1.11625,-1.1081 -4.06327,-2.0821 -6.35443,-2 -2.78468,0.1 -5.4207,0.7806 -7.75766,2.5823 -2.87646,2.2174 -4.25863,4.671 -5.62793,7.8837 -2.78391,8.0642 -2.81382,16.9277 -3.07474,25.5333 -0.0697,2.2989 -0.36507,5.3335 -0.25263,7.6604"
         style="fill:none;stroke:#ffffe6;stroke-width:3.64666653;stroke-linecap:round;stroke-linejoin:miter;stroke-miterlimit:4;stroke-dasharray:none;stroke-opacity:1"
         inkscape:connector-curvature="0" />
      <path
         inkscape:export-ydpi="899.56647"
         inkscape:export-xdpi="899.56647"
         sodipodi:nodetypes="ssssssssssszs"
         inkscape:connector-curvature="0"
         id="path71299-9-8-8-6-5-4-2-1-6-6-2-5-0-0-3-9-3-9-5-0"
         d="m 464.26385,3254.1916 c -0.6938,-4.7963 -1.57926,-6.9938 -4.89473,-9.1814 -2.4173,-1.5946 -5.36129,-1.4183 -8.03217,-0.469 -3.44186,1.2235 -6.07554,3.8388 -8.93566,8.6749 -1.56801,2.6513 -2.78539,6.7255 -3.41973,10.4722 -0.63074,3.7255 -0.69537,6.2533 -0.51649,9.8372 0.12723,2.5495 0.47928,4.2779 0.86278,5.3599 0.48077,1.3565 0.8558,2.9199 2.90051,5.0969 1.38634,1.4759 2.63292,2.2536 3.80217,2.7849 2.482,1.1278 5.05773,0.8544 6.6944,0.1994 2.91491,-1.1668 5.8727,-3.3979 7.89779,-6.9698 1.52071,-2.6824 3.07007,-6.6074 3.57943,-11.3927 0.50937,-4.7852 0.86274,-8.8748 0.0617,-14.4125 z"
         style="fill:none;stroke:#ffffe6;stroke-width:3.64666677;stroke-linecap:round;stroke-linejoin:miter;stroke-miterlimit:4;stroke-dasharray:none;stroke-opacity:1" />
      <path
         sodipodi:nodetypes="cscccccscccccccccc"
         inkscape:connector-curvature="0"
         id="path71299-9-8-8-6-5-4-2-1-6-6-2-5-0-0-3-9-3-1-6-5-6"
         d="m -51.57683,3326.9106 c 0.0147,-1.6616 0.0488,-2.4189 0.078,-18.3852 0.007,-3.7671 0.0139,-7.5852 0.0162,-11.2901 0.007,-10.9711 -0.21373,-20.7614 -0.33488,-25.0887 0.0987,1.6399 0.3538,3.352 0.6914,5.2375 0.85412,4.7704 1.81252,6.9372 5.19943,9.0125 2.46936,1.5127 5.40486,1.2377 8.04246,0.1994 3.3989,-1.3381 5.9454,-4.0393 8.6418,-8.9685 1.4783,-2.7023 2.5567,-6.8154 3.0652,-10.5812 0.5055,-3.7446 0.4865,-6.2739 0.1876,-9.8498 -0.2126,-2.5438 -0.6228,-4.2589 -1.0424,-5.3274 -0.5259,-1.3397 -0.953,-2.8903 -3.0696,-4.9976 -1.435,-1.4286 -2.7075,-2.1644 -3.8939,-2.6562 -2.5184,-1.044 -5.0824,-0.6843 -6.6962,0.025 -2.8742,1.2638 -5.75622,3.5937 -7.66048,7.2314 -1.42998,2.7319 -2.8476,6.7065 -3.19633,11.5062 -0.19391,2.6687 -0.33674,5.126 -0.26476,7.7241 z"
         style="fill:none;stroke:#ffffe6;stroke-width:3.64700007;stroke-linecap:round;stroke-linejoin:round;stroke-miterlimit:4;stroke-dasharray:none;stroke-opacity:1" />
      <path
         inkscape:export-ydpi="899.56647"
         inkscape:export-xdpi="899.56647"
         sodipodi:nodetypes="cssc"
         inkscape:connector-curvature="0"
         id="path71299-9-8-8-6-5-4-1-9-4-6-4-2-7-0-2-6-7-5-8-7-8-7-8"
         d="m 25.795919,3223.1342 c -0.1612,3.763 -0.2249,7.5811 -0.3567,11.2832 -0.4608,12.9412 -0.5204,24.6149 -0.488,27.1663 0.038,3.0123 -0.051,20.6108 0.032,25.9137"
         style="fill:none;stroke:#ffffe6;stroke-width:3.646667;stroke-linecap:round;stroke-linejoin:miter;stroke-miterlimit:4;stroke-dasharray:none;stroke-opacity:1" />
      <path
         inkscape:connector-curvature="0"
         id="path74017-1-6-6"
         d="m 13.995319,3243.7192 h 22.9712"
         style="fill:none;stroke:#ffffe6;stroke-width:3.64700031;stroke-linecap:round;stroke-linejoin:miter;stroke-miterlimit:4;stroke-dasharray:none;stroke-opacity:1" />
      <path
         d="m 362.15306,3230.3195 a 2.948,2.948 0 0 1 1.95836,3.5448 2.948,2.948 0 0 1 -3.42875,2.1552 2.948,2.948 0 0 1 -2.34513,-3.3018 2.948,2.948 0 0 1 3.16421,-2.5276"
         sodipodi:open="true"
         sodipodi:end="4.7955539"
         sodipodi:start="5.0212774"
         sodipodi:ry="2.948"
         sodipodi:rx="2.948"
         sodipodi:cy="3233.1279"
         sodipodi:cx="361.25687"
         sodipodi:type="arc"
         id="path74067-4-3"
         style="opacity:0.95;vector-effect:none;fill:#ffffe6;fill-opacity:1;stroke:none;stroke-width:3.64700031;stroke-linecap:round;stroke-linejoin:round;stroke-miterlimit:4;stroke-dasharray:none;stroke-dashoffset:0;stroke-opacity:1" />
      <path
         d="m 45.747148,3230.3195 a 2.948,2.948 0 0 1 1.958361,3.5448 2.948,2.948 0 0 1 -3.428746,2.1552 2.948,2.948 0 0 1 -2.34513,-3.3018 2.948,2.948 0 0 1 3.164211,-2.5276"
         sodipodi:open="true"
         sodipodi:end="4.7955539"
         sodipodi:start="5.0212774"
         sodipodi:ry="2.948"
         sodipodi:rx="2.948"
         sodipodi:cy="3233.1279"
         sodipodi:cx="44.850956"
         sodipodi:type="arc"
         id="path74067-1-9-1"
         style="opacity:0.95;vector-effect:none;fill:#ffffe6;fill-opacity:1;stroke:none;stroke-width:3.64700031;stroke-linecap:round;stroke-linejoin:round;stroke-miterlimit:4;stroke-dasharray:none;stroke-dashoffset:0;stroke-opacity:1" />
      <path
         inkscape:export-ydpi="899.56647"
         inkscape:export-xdpi="899.56647"
         sodipodi:nodetypes="czzzssssssssssc"
         inkscape:connector-curvature="0"
         id="path71368-5-7-7-8-3-1-7-6-06-9-3-8-5-9-7-6-0-1"
         d="m 59.727173,3266.8974 c 0,0 0.1461,1.3758 1.1377,1.3528 0.9916,-0.023 4.3556,-1.4377 7.380121,-3.889 3.02452,-2.4513 8.43978,-9.8482 9.28766,-11.1663 0.84788,-1.3181 2.6999,-4.4055 1.44501,-6.7287 -1.2549,-2.3232 -4.74452,-4.3226 -9.53291,-1.9452 -4.408821,2.1889 -6.845771,4.1362 -9.564861,7.5854 -1.86127,2.361 -3.71228,5.8425 -4.87864,9.5102 -1.22821,3.8622 -1.4871,4.6619 -1.80098,8.222 -0.22718,2.5766 -0.12682,5.956 0.0856,7.0895 0.26639,1.4207 0.59257,3.5368 2.20726,5.9706 1.0948,1.6501 2.17686,2.546 3.17195,3.2566 1.50842,1.0771 4.25984,1.4558 5.91638,1.2294 1.971291,-0.2695 5.430091,-2.5659 8.492261,-5.0566 2.82794,-2.3002 4.51702,-4.0931 6.25883,-6.0474"
         style="fill:none;stroke:#ffffe6;stroke-width:3.64666653;stroke-linecap:round;stroke-linejoin:miter;stroke-miterlimit:4;stroke-dasharray:none;stroke-opacity:1" />
      <path
         d="m 88.283421,3282.6715 a 2.948,2.948 0 0 1 1.958362,3.5448 2.948,2.948 0 0 1 -3.428746,2.1552 2.948,2.948 0 0 1 -2.34513,-3.3017 2.948,2.948 0 0 1 3.164211,-2.5276"
         sodipodi:open="true"
         sodipodi:end="4.7955539"
         sodipodi:start="5.0212774"
         sodipodi:ry="2.948"
         sodipodi:rx="2.948"
         sodipodi:cy="3285.48"
         sodipodi:cx="87.38723"
         sodipodi:type="arc"
         id="path74067-1-9-1-0"
         style="opacity:0.95;vector-effect:none;fill:#ffffe6;fill-opacity:1;stroke:none;stroke-width:3.64700031;stroke-linecap:round;stroke-linejoin:round;stroke-miterlimit:4;stroke-dasharray:none;stroke-dashoffset:0;stroke-opacity:1" />
      <path
         inkscape:connector-curvature="0"
         id="path71299-9-8-8-6-5-4-1-9-4-6-9-9-0-7-6-6-1-0-8-3-3-2-1-7-3"
         d="m 190.54466,3200.3129 a 1.6614505,1.6614505 0 0 0 -1.42038,1.1597 c -0.18327,0.5623 -1.32736,3.4675 -3.04859,7.9181 -1.72123,4.4506 -4.06362,10.5918 -6.81039,18.1519 -1.29399,3.5615 -2.60561,7.1735 -3.87522,10.6788 -4.4056,12.1635 -8.3701,23.2095 -9.21339,25.865 -0.89819,2.8281 -6.58602,19.786 -8.2307,25.0134 a 1.661982,1.661982 0 1 0 3.17075,0.9975 c 1.60349,-5.0963 7.26518,-21.9799 8.22616,-25.0058 l 0.002,-2e-4 c 0.73134,-2.3029 4.76638,-13.5815 9.16963,-25.7386 1.2691,-3.5039 2.58008,-7.1144 3.87384,-10.6751 2.73689,-7.5328 5.07053,-13.6508 6.78675,-18.0885 1.71622,-4.4375 2.77098,-7.0497 3.1092,-8.0875 a 1.6614505,1.6614505 0 0 0 -1.73943,-2.1887 z"
         style="color:#000000;font-style:normal;font-variant:normal;font-weight:normal;font-stretch:normal;font-size:medium;line-height:normal;font-family:sans-serif;font-variant-ligatures:normal;font-variant-position:normal;font-variant-caps:normal;font-variant-numeric:normal;font-variant-alternates:normal;font-feature-settings:normal;text-indent:0;text-align:start;text-decoration:none;text-decoration-line:none;text-decoration-style:solid;text-decoration-color:#000000;letter-spacing:normal;word-spacing:normal;text-transform:none;writing-mode:lr-tb;direction:ltr;text-orientation:mixed;dominant-baseline:auto;baseline-shift:baseline;text-anchor:start;white-space:normal;shape-padding:0;clip-rule:nonzero;display:inline;overflow:visible;visibility:visible;opacity:1;isolation:auto;mix-blend-mode:normal;color-interpolation:sRGB;color-interpolation-filters:linearRGB;solid-color:#000000;solid-opacity:1;vector-effect:none;fill:#ffffe6;fill-opacity:1;fill-rule:nonzero;stroke:none;stroke-width:3.64666605;stroke-linecap:round;stroke-linejoin:miter;stroke-miterlimit:4;stroke-dasharray:none;stroke-dashoffset:0;stroke-opacity:1;color-rendering:auto;image-rendering:auto;shape-rendering:auto;text-rendering:auto;enable-background:accumulate" />
      <path
         inkscape:export-ydpi="899.56647"
         inkscape:export-xdpi="899.56647"
         sodipodi:nodetypes="ssssssssssszs"
         inkscape:connector-curvature="0"
         id="path71299-9-8-8-6-5-4-2-1-6-6-2-5-0-0-3-9-3-9-5-0-4"
         d="m 215.04509,3254.2108 c -0.6938,-4.7963 -1.57926,-6.9938 -4.89473,-9.1814 -2.4173,-1.5946 -5.36129,-1.4183 -8.03217,-0.469 -3.44186,1.2235 -6.07554,3.8388 -8.93566,8.6749 -1.56801,2.6513 -2.78539,6.7255 -3.41973,10.4722 -0.63074,3.7255 -0.69537,6.2533 -0.51649,9.8372 0.12723,2.5495 0.47928,4.2779 0.86278,5.3599 0.48077,1.3565 0.8558,2.9199 2.90051,5.0969 1.38634,1.4759 2.63292,2.2536 3.80217,2.7849 2.482,1.1278 5.05773,0.8544 6.6944,0.1994 2.91491,-1.1668 5.8727,-3.3979 7.89779,-6.9698 1.52071,-2.6824 3.07007,-6.6074 3.57943,-11.3927 0.50937,-4.7852 0.86274,-8.8748 0.0617,-14.4125 z"
         style="fill:none;stroke:#ffffe6;stroke-width:3.64666677;stroke-linecap:round;stroke-linejoin:miter;stroke-miterlimit:4;stroke-dasharray:none;stroke-opacity:1" />
      <path
         inkscape:export-ydpi="899.56647"
         inkscape:export-xdpi="899.56647"
         sodipodi:nodetypes="cssssscsc"
         id="path71321-6-5-2-8-8-7-6-8-2-0-1-2-0-3-5-2-1-3-3-5-0"
         d="m 247.88496,3287.3706 c 0.20755,-6.8455 0.55116,-16.5215 0.64565,-22.0213 0.051,-2.9709 0.52901,-8.487 -0.23714,-12.9223 -0.64772,-3.7496 -1.54798,-5.424 -2.81543,-6.6822 -1.11625,-1.1081 -4.06327,-2.0821 -6.35443,-2 -2.78468,0.1 -5.4207,0.7806 -7.75766,2.5823 -2.87646,2.2174 -4.25863,4.671 -5.62793,7.8837 -2.78391,8.0642 -2.81382,16.9277 -3.07474,25.5333 -0.0697,2.2989 -0.36507,5.3335 -0.25263,7.6604"
         style="fill:none;stroke:#ffffe6;stroke-width:3.64666653;stroke-linecap:round;stroke-linejoin:miter;stroke-miterlimit:4;stroke-dasharray:none;stroke-opacity:1"
         inkscape:connector-curvature="0" />
      <path
         inkscape:export-ydpi="899.56647"
         inkscape:export-xdpi="899.56647"
         sodipodi:nodetypes="ssssssssssszs"
         inkscape:connector-curvature="0"
         id="path71299-9-8-8-6-5-4-2-1-6-6-2-5-0-0-3-9-3-9-5-0-4-9"
         d="m 314.74815,3254.1916 c -0.6938,-4.7963 -1.57926,-6.9938 -4.89473,-9.1814 -2.4173,-1.5946 -5.36129,-1.4183 -8.03217,-0.469 -3.44186,1.2235 -6.07554,3.8388 -8.93566,8.6749 -1.56801,2.6513 -2.78539,6.7255 -3.41973,10.4722 -0.63074,3.7255 -0.69537,6.2533 -0.51649,9.8372 0.12723,2.5495 0.47928,4.2779 0.86278,5.3599 0.48077,1.3565 0.8558,2.9199 2.90051,5.0969 1.38634,1.4759 2.63292,2.2536 3.80217,2.7849 2.482,1.1278 5.05773,0.8544 6.6944,0.1994 2.91491,-1.1668 5.8727,-3.3979 7.89779,-6.9698 1.52071,-2.6824 3.07007,-6.6074 3.57943,-11.3927 0.50937,-4.7852 0.86274,-8.8748 0.0617,-14.4125 z"
         style="fill:none;stroke:#ffffe6;stroke-width:3.64666677;stroke-linecap:round;stroke-linejoin:miter;stroke-miterlimit:4;stroke-dasharray:none;stroke-opacity:1" />
      <path
         sodipodi:nodetypes="cscccccscccccccccc"
         inkscape:connector-curvature="0"
         id="path71299-9-8-8-6-5-4-2-1-6-6-2-5-0-0-3-9-3-1-6-5-6-9"
         d="m 530.89992,3326.9106 c 0.0147,-1.6616 0.0488,-2.4189 0.078,-18.3852 0.007,-3.7671 0.0139,-7.5852 0.0162,-11.2901 0.007,-10.9711 -0.21373,-20.7614 -0.33488,-25.0887 0.0987,1.6399 0.3538,3.352 0.6914,5.2375 0.85412,4.7704 1.81252,6.9372 5.19943,9.0125 2.46936,1.5127 5.40486,1.2377 8.04246,0.1994 3.3989,-1.3381 5.9454,-4.0393 8.6418,-8.9685 1.4783,-2.7023 2.5567,-6.8154 3.0652,-10.5812 0.5055,-3.7446 0.4865,-6.2739 0.1876,-9.8498 -0.2126,-2.5438 -0.6228,-4.2589 -1.0424,-5.3274 -0.5259,-1.3397 -0.953,-2.8903 -3.0696,-4.9976 -1.435,-1.4286 -2.7075,-2.1644 -3.8939,-2.6562 -2.5184,-1.044 -5.0824,-0.6843 -6.6962,0.025 -2.8742,1.2638 -5.75622,3.5937 -7.66048,7.2314 -1.42998,2.7319 -2.8476,6.7065 -3.19633,11.5062 -0.19391,2.6687 -0.33674,5.126 -0.26476,7.7241 z"
         style="fill:none;stroke:#ffffe6;stroke-width:3.64700007;stroke-linecap:round;stroke-linejoin:round;stroke-miterlimit:4;stroke-dasharray:none;stroke-opacity:1" />
      <path
         inkscape:export-ydpi="899.56647"
         inkscape:export-xdpi="899.56647"
         sodipodi:nodetypes="czzzssssssssssc"
         inkscape:connector-curvature="0"
         id="path71368-5-7-7-8-3-1-7-6-06-9-3-8-5-9-7-6-0-6"
         d="m 583.26381,3266.8974 c 0,0 0.1461,1.3758 1.1377,1.3528 0.9916,-0.023 4.3556,-1.4377 7.38012,-3.889 3.02452,-2.4513 8.43978,-9.8482 9.28766,-11.1663 0.84788,-1.3181 2.6999,-4.4055 1.44501,-6.7287 -1.2549,-2.3232 -4.74452,-4.3226 -9.53291,-1.9452 -4.40882,2.1889 -6.84577,4.1362 -9.56486,7.5854 -1.86127,2.361 -3.71228,5.8425 -4.87864,9.5102 -1.22821,3.8622 -1.4871,4.6619 -1.80098,8.222 -0.22718,2.5766 -0.12682,5.956 0.0856,7.0895 0.26639,1.4207 0.59257,3.5368 2.20726,5.9706 1.0948,1.6501 2.17686,2.546 3.17195,3.2566 1.50842,1.0771 4.25984,1.4558 5.91638,1.2294 1.97129,-0.2695 5.43009,-2.5659 8.49226,-5.0566 2.82794,-2.3002 4.51702,-4.0931 6.25883,-6.0474"
         style="fill:none;stroke:#ffffe6;stroke-width:3.64666653;stroke-linecap:round;stroke-linejoin:miter;stroke-miterlimit:4;stroke-dasharray:none;stroke-opacity:1" />
      <path
         sodipodi:nodetypes="cc"
         inkscape:connector-curvature="0"
         id="path74345-3-0-3"
         d="m 611.14383,3287.4411 26.323,-43.7566"
         style="fill:none;stroke:#ffffe6;stroke-width:3.64700007;stroke-linecap:round;stroke-linejoin:miter;stroke-miterlimit:4;stroke-dasharray:none;stroke-opacity:1" />
      <path
         sodipodi:nodetypes="cc"
         inkscape:connector-curvature="0"
         id="path74347-3-62-3"
         d="m 611.14223,3243.6754 26.2811,43.7284"
         style="fill:none;stroke:#ffffe6;stroke-width:3.64700007;stroke-linecap:round;stroke-linejoin:miter;stroke-miterlimit:4;stroke-dasharray:none;stroke-opacity:1" />
      <path
         inkscape:export-ydpi="899.56647"
         inkscape:export-xdpi="899.56647"
         sodipodi:nodetypes="cssssscc"
         inkscape:connector-curvature="0"
         id="path71299-9-8-8-6-5-4-1-9-4-6-4-2-7-0-2-6-7-5-8-7-6-2-8"
         d="m 374.54805,3320.0171 c 1.47307,3.5153 3.55434,5.3899 5.34208,6.0787 1.44957,0.5556 3.2809,1.1791 5.31975,0.5556 1.11101,-0.3397 2.27618,-1.0957 3.70247,-2.5181 2.1036,-2.0979 2.68229,-3.7575 3.31678,-5.1754 0.50614,-1.1313 1.46324,-2.9227 1.80666,-6.715 1.29231,-14.2707 1.6814,-26.9268 1.57561,-42.8702 -0.0382,-3.0123 0.0508,-12.6108 -0.0322,-17.9137"
         style="fill:none;stroke:#ffffe6;stroke-width:3.646667;stroke-linecap:round;stroke-linejoin:miter;stroke-miterlimit:4;stroke-dasharray:none;stroke-opacity:1" />
    </g>
  </g>
</svg>
